<?xml version="1.0" standalone="no"?>
<!DOCTYPE svg PUBLIC "-//W3C//DTD SVG 20010904//EN"
 "http://www.w3.org/TR/2001/REC-SVG-20010904/DTD/svg10.dtd">
<svg version="1.0" xmlns="http://www.w3.org/2000/svg"
 width="205.000000pt" height="205.000000pt" viewBox="0 0 205.000000 205.000000"
 preserveAspectRatio="xMidYMid meet">
<metadata>
Created by potrace 1.14, written by Peter Selinger 2001-2017
</metadata>
<g transform="translate(0.000000,205.000000) scale(0.100000,-0.100000)"
fill="#000000" stroke="none">
<path d="M834 2025 c-17 -17 -21 -31 -19 -68 2 -26 -1 -50 -6 -53 -5 -3 -9 -2
-8 3 4 21 -2 33 -16 33 -8 0 -15 9 -15 19 0 31 -35 35 -86 10 -81 -41 -132
-104 -163 -202 -14 -44 -32 -77 -51 -95 -17 -15 -33 -41 -36 -58 -5 -27 -2
-33 15 -39 12 -3 21 -11 21 -17 0 -6 7 -16 17 -23 11 -9 17 -31 19 -76 8 -160
27 -224 86 -286 27 -27 30 -38 30 -90 -1 -73 -7 -78 -173 -144 -139 -56 -191
-81 -220 -107 -39 -37 -110 -245 -114 -333 -1 -31 -6 -63 -11 -70 -4 -7 -8
-64 -9 -127 -1 -90 2 -115 15 -126 17 -14 97 -48 120 -50 9 -1 21 -5 28 -10 6
-4 21 -9 32 -12 11 -2 29 -6 40 -9 78 -20 247 -53 300 -60 30 -4 64 -9 75 -11
11 -2 108 -4 215 -5 143 0 211 4 255 15 33 9 69 17 80 19 40 8 55 20 55 43 0
16 -8 27 -23 33 -25 10 -92 4 -117 -9 -52 -27 -500 -30 -543 -3 -5 3 -24 7
-41 9 -17 2 -42 6 -56 9 -13 2 -41 7 -62 10 -21 3 -57 13 -79 21 -23 7 -50 14
-60 14 -11 0 -19 4 -19 9 0 5 -13 11 -28 14 -33 7 -55 43 -54 89 1 61 19 195
27 209 3 4 7 30 10 57 3 27 12 63 20 78 8 16 15 37 15 47 0 9 5 17 11 17 5 0
7 4 4 10 -3 5 12 27 33 48 29 29 70 51 158 85 66 26 124 47 129 47 6 0 11 -9
11 -20 1 -23 97 -118 134 -132 90 -37 120 -45 126 -37 3 6 11 8 17 6 19 -7 90
24 121 52 44 40 86 102 86 126 0 20 30 46 30 27 0 -9 76 -45 152 -73 32 -11
60 -24 62 -27 2 -4 -51 -7 -120 -7 -181 1 -170 21 -168 -291 1 -137 2 -253 3
-259 1 -5 16 -20 34 -32 30 -21 45 -23 178 -24 113 -1 137 -3 112 -11 -21 -7
-34 -19 -38 -36 -3 -14 -17 -34 -31 -45 -23 -18 -24 -21 -9 -37 14 -16 34 -18
146 -18 71 0 131 4 135 9 15 25 11 47 -12 58 -21 9 -27 21 -23 47 2 15 -27 22
-77 20 -30 -1 -54 1 -54 6 0 5 37 8 83 7 113 -2 124 5 123 76 -1 31 -7 59 -13
63 -7 4 -107 7 -223 7 -116 0 -215 2 -220 5 -9 5 -12 85 -11 261 l1 96 280 -1
c154 0 280 -3 280 -7 0 -4 -8 -6 -18 -4 -10 1 -26 -3 -37 -11 -19 -14 -20 -29
-20 -325 l-1 -311 24 -23 c22 -22 30 -24 128 -22 92 2 107 5 120 21 11 16 14
77 14 323 0 303 0 304 -23 327 -20 20 -32 22 -95 21 -40 -1 -75 2 -77 6 -3 4
9 6 26 5 34 -3 61 25 52 53 -16 44 -25 47 -182 46 l-149 -1 -17 28 c-19 34
-57 53 -212 113 -64 25 -122 50 -129 56 -7 5 -12 32 -12 58 -1 39 4 53 24 72
50 47 103 213 104 326 0 57 18 84 49 78 11 -2 24 2 30 9 13 15 -30 110 -61
136 -13 10 -23 24 -23 32 -6 118 -196 315 -267 277 -18 -10 -24 -8 -40 11 -10
12 -15 26 -12 31 3 5 -3 9 -13 10 -10 1 -31 2 -47 4 -20 1 -37 -5 -52 -20z
m330 -507 c33 -44 -6 -244 -59 -306 -37 -43 -168 -113 -213 -114 -43 -1 -192
62 -223 93 -16 16 -33 48 -40 71 -14 52 -20 237 -8 259 7 14 40 16 269 15 236
-1 263 -3 274 -18z m-397 -459 c27 -12 57 -25 68 -29 11 -5 34 -13 51 -19 20
-8 38 -9 55 -2 13 5 47 18 74 29 l51 20 3 -72 2 -73 -48 -49 c-26 -27 -70 -61
-96 -75 -46 -25 -50 -25 -92 -11 -24 8 -63 33 -87 57 l-44 43 2 83 c3 117 3
119 9 119 2 0 26 -10 52 -21z"/>
<path d="M527 674 c-3 -3 -42 -7 -86 -8 -109 -3 -108 -2 -106 -183 1 -132 3
-144 23 -166 26 -27 18 -26 146 -29 119 -4 156 9 157 53 0 16 1 76 1 134 0
164 3 152 -42 175 -22 11 -40 18 -40 15 0 -2 -11 0 -24 5 -13 5 -26 6 -29 4z"/>
</g>
</svg>
